<svg width="25" height="25" viewBox="0 0 25 25" fill="none" xmlns="http://www.w3.org/2000/svg">
<path d="M21.1914 13.3179L13.0884 3.97949C13.0152 3.89499 12.9246 3.82722 12.8229 3.78078C12.7212 3.73433 12.6106 3.7103 12.4988 3.7103C12.387 3.7103 12.2765 3.73433 12.1747 3.78078C12.073 3.82722 11.9825 3.89499 11.9092 3.97949L3.80862 13.3179C3.78414 13.346 3.76827 13.3806 3.76289 13.4175C3.75752 13.4544 3.76287 13.4921 3.77831 13.5261C3.79374 13.56 3.81861 13.5888 3.84996 13.6091C3.8813 13.6293 3.9178 13.6401 3.9551 13.6401H5.93264C6.04495 13.6401 6.15237 13.5913 6.22805 13.5059L11.5723 7.34619V21.0937C11.5723 21.2012 11.6602 21.289 11.7676 21.289H13.2325C13.3399 21.289 13.4278 21.2012 13.4278 21.0937V7.34619L18.772 13.5059C18.8453 13.5913 18.9527 13.6401 19.0674 13.6401H21.045C21.211 13.6401 21.3013 13.4448 21.1914 13.3179Z" fill="#212353"/>
</svg>
