<svg width="72" height="63" viewBox="0 0 72 63" fill="none" xmlns="http://www.w3.org/2000/svg">
<path d="M12.2034 61.5366H70.7797V11.8288H12.2034V61.5366Z" fill="white"/>
<path d="M72 62.9986H9.7627V8.90479H72V62.9986ZM11.04 61.4513H70.7227V10.4521H11.04V61.4513Z" fill="#E6E6E6"/>
<path d="M6.53354 57.1506H6.10168V5.98077H64.678V6.51109H6.53354V57.1506Z" fill="#3F3D56"/>
<path d="M0.441064 51.3026H0V0.132812H59.7966V0.663132H0.441064V51.3026Z" fill="#3F3D56"/>
<path d="M40.8813 51.3026C47.9581 51.3026 53.6949 44.4298 53.6949 35.9517C53.6949 27.4736 47.9581 20.6007 40.8813 20.6007C33.8046 20.6007 28.0678 27.4736 28.0678 35.9517C28.0678 44.4298 33.8046 51.3026 40.8813 51.3026Z" fill="white"/>
<path d="M40.8814 51.3026C33.8159 51.3026 28.0678 44.4162 28.0678 35.9517C28.0678 27.4872 33.8159 20.6007 40.8814 20.6007C47.9468 20.6007 53.6949 27.4872 53.6949 35.9517C53.6949 44.4162 47.9468 51.3026 40.8814 51.3026ZM40.8814 21.1008C34.0478 21.1008 28.4882 27.7628 28.4882 35.9517C28.4882 44.1406 34.0478 50.8026 40.8814 50.8026C47.715 50.8026 53.2745 44.1406 53.2745 35.9517C53.2745 27.7628 47.715 21.1008 40.8814 21.1008V21.1008Z" fill="#3F3D56"/>
<path d="M37.8305 29.3727V43.9926L47.5932 36.5827L37.8305 29.3727Z" fill="#F063B8"/>
</svg>