<svg width="591" height="341" viewBox="0 0 591 341" fill="none" xmlns="http://www.w3.org/2000/svg">
<g clip-path="url(#clip0_2_33)">
<path d="M10.1932 130.954H204.577C207.108 130.954 209.535 131.959 211.324 133.75C213.114 135.54 214.119 137.969 214.119 140.501V155.665H0.651123V140.501C0.651125 137.969 1.65645 135.54 3.44593 133.75C5.23541 131.959 7.66246 130.954 10.1932 130.954V130.954Z" fill="#212353"/>
<path d="M200.888 129.189C199.927 129.193 198.974 129.355 198.066 129.669C197.755 128.416 196.996 127.32 195.932 126.588C194.868 125.857 193.574 125.54 192.293 125.698C191.011 125.856 189.832 126.478 188.978 127.446C188.124 128.415 187.654 129.662 187.656 130.954C187.656 130.98 187.663 131.005 187.663 131.031C187.002 131.094 186.349 131.229 185.717 131.434C185.538 130.722 185.212 130.054 184.762 129.473C184.312 128.893 183.746 128.412 183.101 128.061C184.796 127.123 186.137 125.654 186.918 123.88C191.235 123.81 194.713 120.688 194.713 116.833C194.713 112.933 191.159 109.773 186.774 109.773C185.814 109.777 184.86 109.939 183.953 110.253C183.79 109.559 183.488 108.905 183.066 108.331C182.643 107.756 182.109 107.274 181.495 106.912C180.881 106.55 180.2 106.316 179.493 106.225C178.786 106.133 178.068 106.186 177.382 106.38C176.696 106.574 176.057 106.905 175.502 107.353C174.948 107.801 174.49 108.357 174.156 108.987C173.822 109.617 173.62 110.308 173.56 111.019C173.501 111.729 173.586 112.445 173.81 113.122C173.599 113.268 173.403 113.433 173.206 113.597C172.208 112.738 170.912 112.306 169.598 112.396C168.919 110.447 167.577 108.798 165.806 107.74C164.035 106.681 161.948 106.28 159.911 106.607C157.874 106.933 156.016 107.966 154.664 109.525C153.312 111.084 152.551 113.069 152.515 115.133C151.807 115.189 151.108 115.328 150.433 115.548C150.357 115.25 150.255 114.958 150.129 114.677C150.825 114.063 151.385 113.308 151.771 112.463C152.158 111.618 152.362 110.702 152.372 109.773C152.372 105.873 148.818 102.712 144.433 102.712C143.473 102.716 142.52 102.879 141.612 103.193C141.449 102.499 141.147 101.845 140.725 101.27C140.302 100.696 139.768 100.213 139.154 99.8513C138.54 99.4894 137.859 99.2557 137.152 99.1643C136.445 99.073 135.727 99.1259 135.041 99.3198C134.356 99.5138 133.716 99.8448 133.162 100.293C132.607 100.741 132.149 101.297 131.816 101.927C131.482 102.557 131.279 103.248 131.22 103.958C131.16 104.669 131.245 105.384 131.47 106.061C130.359 106.833 129.441 107.851 128.787 109.035C128.133 110.22 127.761 111.539 127.699 112.891C127.624 112.957 127.539 113.011 127.468 113.081C127.6 112.577 127.669 112.059 127.673 111.538C127.673 107.638 124.119 104.477 119.734 104.477C118.774 104.481 117.821 104.644 116.913 104.958C116.75 104.264 116.449 103.61 116.026 103.035C115.604 102.461 115.069 101.978 114.455 101.616C113.841 101.254 113.16 101.021 112.453 100.929C111.747 100.838 111.029 100.891 110.343 101.085C109.657 101.279 109.017 101.61 108.463 102.058C107.909 102.506 107.451 103.062 107.117 103.692C106.783 104.322 106.58 105.013 106.521 105.724C106.461 106.434 106.546 107.149 106.771 107.826C105.6 108.636 104.643 109.718 103.981 110.979C103.32 112.24 102.975 113.644 102.975 115.068C102.975 116.492 103.32 117.895 103.981 119.156C104.643 120.418 105.6 121.5 106.771 122.309C106.414 123.335 106.414 124.451 106.771 125.477C105.887 126.094 105.122 126.867 104.514 127.757C104.187 126.572 103.456 125.538 102.447 124.836C101.438 124.133 100.215 123.807 98.9904 123.913C97.7658 124.019 96.617 124.55 95.7434 125.415C94.8697 126.281 94.3266 127.424 94.2081 128.649C93.5008 128.234 92.7367 127.925 91.94 127.732C93.369 126.788 94.4943 125.45 95.1801 123.88C99.4963 123.81 102.975 120.688 102.975 116.833C102.975 112.933 99.4202 109.773 95.0357 109.773C94.0753 109.777 93.1221 109.939 92.2144 110.253C92.0516 109.559 91.7498 108.905 91.3273 108.331C90.9049 107.756 90.3705 107.274 89.7564 106.912C89.1424 106.55 88.4614 106.316 87.7545 106.225C87.0477 106.133 86.3297 106.186 85.6439 106.38C84.958 106.574 84.3186 106.905 83.7642 107.353C83.2097 107.801 82.7518 108.357 82.418 108.987C82.0842 109.617 81.8814 110.308 81.822 111.019C81.7625 111.729 81.8476 112.445 82.0721 113.121C81.959 113.2 81.857 113.293 81.7477 113.377C81.4725 113.351 81.2049 113.303 80.9221 113.303C79.9617 113.307 79.0085 113.469 78.1008 113.783C78.0674 113.65 78.0125 113.527 77.9695 113.398C78.1403 112.612 78.1267 111.797 77.9297 111.017C77.7327 110.238 77.3577 109.514 76.8342 108.904C76.3107 108.294 75.6529 107.814 74.9125 107.501C74.1721 107.188 73.3693 107.051 72.5671 107.101C72.1077 105.821 71.3586 104.664 70.3784 103.722C69.3982 102.78 68.2134 102.077 66.9167 101.669C65.6201 101.262 64.2467 101.159 62.9039 101.37C61.5611 101.582 60.2854 102.101 59.1765 102.887C58.0676 103.674 57.1556 104.706 56.5118 105.904C55.868 107.102 55.5098 108.432 55.4653 109.792C55.4208 111.151 55.6911 112.502 56.2552 113.739C56.8193 114.977 57.6618 116.067 58.7169 116.924C58.1099 116.994 57.5114 117.124 56.9305 117.313C56.7219 116.453 56.299 115.659 55.7013 115.006C55.1035 114.353 54.3503 113.862 53.5117 113.579C52.6732 113.295 51.7766 113.229 50.9055 113.385C50.0344 113.542 49.217 113.917 48.5296 114.475C47.7434 113.54 46.7597 112.792 45.6495 112.284C44.5394 111.776 43.3304 111.521 42.1097 111.538C41.1493 111.542 40.1962 111.704 39.2885 112.018C39.1256 111.324 38.8239 110.67 38.4014 110.096C37.9789 109.521 37.4446 109.039 36.8305 108.677C36.2164 108.315 35.5354 108.081 34.8286 107.99C34.1218 107.898 33.4038 107.951 32.7179 108.145C32.0321 108.339 31.3927 108.67 30.8382 109.118C30.2838 109.566 29.8258 110.122 29.492 110.752C29.1582 111.382 28.9555 112.073 28.896 112.784C28.8366 113.495 28.9217 114.21 29.1462 114.887C27.9753 115.697 27.0182 116.779 26.357 118.04C25.6958 119.301 25.3502 120.704 25.3499 122.128C25.3499 122.156 25.3577 122.181 25.3579 122.208C24.107 122.018 22.8282 122.156 21.6465 122.609C21.4836 121.915 21.1819 121.261 20.7594 120.686C20.3369 120.112 19.8026 119.629 19.1885 119.267C18.5744 118.905 17.8934 118.672 17.1866 118.58C16.4798 118.489 15.7618 118.542 15.076 118.736C14.3902 118.93 13.7507 119.261 13.1963 119.709C12.6419 120.157 12.1839 120.713 11.8501 121.343C11.5163 121.973 11.3136 122.664 11.2541 123.375C11.1946 124.085 11.2797 124.8 11.5042 125.477C9.80277 126.63 8.5589 128.342 7.98889 130.317C7.41888 132.292 7.55879 134.404 8.3843 136.287C9.20981 138.169 10.6687 139.703 12.5072 140.62C14.3458 141.538 16.4476 141.782 18.4473 141.31C18.7657 143.151 19.6622 144.843 21.0068 146.141C22.3513 147.438 24.074 148.273 25.9249 148.525C27.7759 148.776 29.6588 148.431 31.3005 147.54C32.9423 146.648 34.2575 145.257 35.0554 143.567C35.778 145.097 36.9262 146.386 38.3624 147.279C39.7986 148.172 41.4618 148.632 43.1526 148.603C44.8434 148.575 46.4901 148.059 47.8953 147.118C49.3005 146.176 50.4046 144.85 51.0751 143.296C52.1146 143.282 53.1433 143.083 54.1132 142.708C54.6963 144.38 55.7703 145.837 57.1947 146.888C58.6191 147.939 60.3275 148.535 62.0962 148.599C63.865 148.663 65.6117 148.19 67.1079 147.244C68.604 146.298 69.7798 144.922 70.4813 143.296C71.7676 143.271 73.0318 142.958 74.1816 142.38C74.9866 143.804 76.1728 144.974 77.6067 145.76C79.0406 146.546 80.6652 146.915 82.2976 146.827C83.93 146.738 85.5054 146.196 86.8463 145.26C88.1872 144.325 89.2405 143.033 89.8875 141.531C90.3609 141.52 90.8326 141.47 91.2981 141.384C91.9582 142.985 93.0753 144.357 94.51 145.327C95.9446 146.298 97.6332 146.823 99.3648 146.839C101.096 146.855 102.794 146.36 104.246 145.416C105.698 144.472 106.84 143.121 107.529 141.531C108.222 141.512 108.91 141.41 109.579 141.229C111.352 141.723 113.237 141.636 114.957 140.979C116.676 140.322 118.14 139.13 119.132 137.579C118.577 139.728 118.853 142.008 119.905 143.963C120.956 145.917 122.705 147.404 124.803 148.126C126.901 148.847 129.194 148.751 131.224 147.856C133.255 146.961 134.873 145.333 135.757 143.296C137.043 143.271 138.307 142.958 139.457 142.38C140.262 143.804 141.448 144.974 142.882 145.76C144.316 146.546 145.941 146.915 147.573 146.827C149.205 146.738 150.781 146.196 152.122 145.26C153.463 144.325 154.516 143.033 155.163 141.531C156.449 141.506 157.713 141.193 158.863 140.615C159.484 141.721 160.337 142.679 161.365 143.421C162.393 144.164 163.57 144.674 164.814 144.915C166.059 145.156 167.341 145.123 168.572 144.819C169.802 144.514 170.952 143.945 171.94 143.151C172.246 144.84 173.04 146.401 174.223 147.644C175.407 148.886 176.927 149.755 178.598 150.143C180.269 150.53 182.017 150.42 183.626 149.825C185.235 149.231 186.635 148.178 187.652 146.797C188.711 147.608 189.941 148.168 191.249 148.432C192.556 148.695 193.907 148.657 195.198 148.32C196.488 147.982 197.685 147.354 198.696 146.483C199.707 145.613 200.506 144.523 201.032 143.296C205.348 143.226 208.826 140.104 208.826 136.249C208.826 132.35 205.272 129.189 200.888 129.189ZM43.2068 125.546C43.1975 125.588 43.1911 125.632 43.1823 125.675C43.1179 125.672 43.0569 125.658 42.9919 125.658C42.7282 125.665 42.4655 125.692 42.2058 125.738C42.2201 125.706 42.2403 125.677 42.2541 125.645C42.5733 125.63 42.8913 125.596 43.2068 125.546V125.546ZM116.913 122.609C116.887 122.506 116.843 122.412 116.812 122.311C118.159 121.377 119.221 120.087 119.879 118.585C121.039 118.579 122.185 118.328 123.242 117.849C124.298 117.371 125.243 116.674 126.013 115.806C125.945 116.144 125.91 116.488 125.909 116.833C125.916 117.372 126.007 117.906 126.177 118.417C124.662 119.473 123.516 120.977 122.898 122.718C120.979 121.971 118.858 121.932 116.913 122.609V122.609ZM169.752 123.267C169.748 123.159 169.761 123.047 169.754 122.94C169.979 122.939 170.204 122.924 170.427 122.894C170.769 124.036 171.341 125.096 172.107 126.009C171.941 126.056 171.765 126.084 171.603 126.139C171.318 125.004 170.668 123.995 169.752 123.267V123.267Z" fill="#F9A825"/>
<path d="M18.4223 139.779C15.9199 139.779 13.4437 140.289 11.1448 141.278C8.8459 142.267 6.77251 143.714 5.05116 145.531C3.3298 147.349 1.99659 149.498 1.13286 151.847C0.26914 154.197 -0.106981 156.699 0.0274567 159.199L11.9737 323.556C12.2256 328.267 14.2735 332.701 17.6956 335.947C21.1178 339.192 25.6535 341 30.3685 341H184.402C189.117 341 193.652 339.192 197.075 335.947C200.497 332.701 202.545 328.267 202.796 323.556L214.743 159.199C214.877 156.699 214.501 154.197 213.637 151.847C212.774 149.498 211.44 147.349 209.719 145.531C207.998 143.714 205.924 142.267 203.625 141.278C201.326 140.289 198.85 139.779 196.348 139.779H18.4223Z" fill="#212353"/>
<path d="M37.6993 139.779H27.1141V341H37.6993V139.779Z" fill="#9C69E2"/>
<path d="M67.6907 139.779H57.1055V341H67.6907V139.779Z" fill="#9C69E2"/>
<path d="M97.682 139.779H87.0968V341H97.682V139.779Z" fill="#9C69E2"/>
<path d="M127.673 139.779H117.088V341H127.673V139.779Z" fill="#9C69E2"/>
<path d="M157.665 139.779H147.079V341H157.665V139.779Z" fill="#9C69E2"/>
<path d="M187.656 139.779H177.071V341H187.656V139.779Z" fill="#9C69E2"/>
<path d="M360.351 57.286L355.737 46.0411L294.211 71.3132C292.818 71.8862 291.626 72.8605 290.788 74.1123C289.949 75.364 289.501 76.8369 289.501 78.3438V144.852H301.653V81.4125L360.351 57.286Z" fill="#212353"/>
<path d="M352.445 33.8211H339.195V75.807H352.445V33.8211Z" fill="#9C69E2"/>
<path d="M331.466 42.6588H318.216V84.6448H331.466V42.6588Z" fill="#9C69E2"/>
<path d="M311.032 78.5691L301.646 81.3309L297.782 36.5831H311.032V78.5691Z" fill="#9C69E2"/>
<path d="M318.761 83.5401H276.796V96.7966H318.761V83.5401Z" fill="#9C69E2"/>
<path d="M318.768 101.775H276.803V115.031H318.768V101.775Z" fill="#9C69E2"/>
<path d="M318.761 120.009H276.796V133.266H318.761V120.009Z" fill="#9C69E2"/>
<path d="M339.194 341H258.026L238.144 142.104H356.868L339.194 341Z" fill="#212353"/>
<path d="M365.701 138.789H229.863V152.046H365.701V138.789Z" fill="#212353"/>
<path d="M503.898 91.4801C529.11 91.4801 549.549 71.0306 549.549 45.8049C549.549 20.5792 529.11 0.1297 503.898 0.1297C478.685 0.1297 458.246 20.5792 458.246 45.8049C458.246 71.0306 478.685 91.4801 503.898 91.4801Z" fill="#3AD29F"/>
<path d="M534.125 45.8048L488.432 68.2673V45.8048V23.3422L534.125 45.8048Z" fill="url(#paint0_linear_2_33)"/>
<path d="M531.378 45.8048L491.172 65.5737V45.8048V26.0358L531.378 45.8048Z" fill="#212353"/>
<path opacity="0.2" d="M461.981 51.0489C461.988 41.6489 464.893 32.4799 470.3 24.7924C475.706 17.1048 483.351 11.2729 492.192 8.09177C501.033 4.91066 510.639 4.53525 519.701 7.01675C528.763 9.49824 536.84 14.7158 542.829 21.958C539.566 16.5895 535.232 11.952 530.097 8.33527C524.962 4.71854 519.136 2.20035 512.985 0.938095C506.833 -0.324163 500.487 -0.303365 494.343 0.999185C488.2 2.30174 482.391 4.85804 477.28 8.50835C472.168 12.1587 467.865 16.8245 464.637 22.2143C461.41 27.6041 459.328 33.6019 458.522 39.833C457.716 46.0642 458.204 52.3946 459.954 58.4287C461.704 64.4628 464.68 70.0709 468.694 74.9025C464.291 67.7268 461.967 59.4687 461.981 51.0489V51.0489Z" fill="#212353"/>
<path d="M495.879 282.867C495.347 282.868 494.837 283.08 494.46 283.456C494.084 283.832 493.872 284.343 493.871 284.875V338.992C493.872 339.525 494.084 340.035 494.46 340.412C494.837 340.788 495.347 340.999 495.879 341H588.992C589.524 340.999 590.034 340.788 590.411 340.412C590.787 340.035 590.999 339.525 591 338.992V284.875C590.999 284.343 590.787 283.832 590.411 283.456C590.034 283.08 589.524 282.868 588.992 282.867H495.879Z" fill="#212353"/>
<path d="M506.285 287.64C505.293 287.641 504.342 288.036 503.641 288.737C502.94 289.439 502.545 290.39 502.544 291.382V332.485C502.545 333.477 502.94 334.428 503.641 335.13C504.342 335.832 505.293 336.226 506.285 336.227H578.586C579.578 336.226 580.529 335.832 581.23 335.13C581.931 334.428 582.326 333.477 582.327 332.485V291.382C582.326 290.39 581.931 289.439 581.23 288.737C580.529 288.036 579.578 287.641 578.586 287.64L506.285 287.64Z" fill="#F063B8"/>
<path d="M496.926 300.694H448.424V311.934H496.926V300.694Z" fill="#212353"/>
<path d="M364.025 282.867C363.493 282.868 362.983 283.08 362.607 283.456C362.231 283.833 362.02 284.343 362.019 284.875V338.992C362.02 339.525 362.231 340.035 362.607 340.411C362.983 340.787 363.493 340.999 364.025 341H457.139C457.671 340.999 458.181 340.787 458.557 340.411C458.933 340.035 459.145 339.525 459.146 338.992V284.875C459.145 284.343 458.933 283.833 458.557 283.456C458.181 283.08 457.671 282.868 457.139 282.867H364.025Z" fill="#212353"/>
<path d="M374.432 287.64C373.44 287.641 372.489 288.035 371.788 288.737C371.086 289.439 370.691 290.39 370.69 291.382V332.485C370.691 333.477 371.086 334.429 371.788 335.131C372.489 335.832 373.44 336.227 374.432 336.227H446.732C447.724 336.227 448.675 335.832 449.377 335.131C450.078 334.429 450.473 333.477 450.474 332.485V291.382C450.473 290.39 450.078 289.439 449.377 288.737C448.675 288.035 447.724 287.641 446.732 287.64L374.432 287.64Z" fill="#9C69E2"/>
</g>
<defs>
<linearGradient id="paint0_linear_2_33" x1="511.279" y1="68.2674" x2="511.279" y2="23.3423" gradientUnits="userSpaceOnUse">
<stop stop-opacity="0.12"/>
<stop offset="0.55" stop-opacity="0.09"/>
<stop offset="1" stop-opacity="0.02"/>
</linearGradient>
<clipPath id="clip0_2_33">
<rect width="591" height="341" fill="white"/>
</clipPath>
</defs>
</svg>
